<svg width="148" height="148" viewBox="0 0 148 148" fill="none" xmlns="http://www.w3.org/2000/svg">
<path opacity="0.7" d="M148 74C148 114.869 114.869 148 74 148C33.1309 148 0 114.869 0 74C0 33.1309 33.1309 0 74 0C114.869 0 148 33.1309 148 74ZM25.096 74C25.096 101.009 46.9911 122.904 74 122.904C101.009 122.904 122.904 101.009 122.904 74C122.904 46.9911 101.009 25.096 74 25.096C46.9911 25.096 25.096 46.9911 25.096 74Z" fill="white"/>
<path opacity="0.5" d="M96 74C96 86.1503 86.1503 96 74 96C61.8497 96 52 86.1503 52 74C52 61.8497 61.8497 52 74 52C86.1503 52 96 61.8497 96 74ZM59.461 74C59.461 82.0297 65.9703 88.539 74 88.539C82.0297 88.539 88.539 82.0297 88.539 74C88.539 65.9703 82.0297 59.461 74 59.461C65.9703 59.461 59.461 65.9703 59.461 74Z" fill="white"/>
</svg>
