<svg width="11" height="7" viewBox="0 0 11 7" fill="none" xmlns="http://www.w3.org/2000/svg">
<path d="M10.6913 0.303437C10.4958 0.109087 10.2313 0 9.95565 0C9.67998 0 9.41551 0.109087 9.22 0.303437L5.4739 3.99736L1.77997 0.303437C1.58446 0.109087 1.31999 0 1.04432 0C0.768642 0 0.50417 0.109087 0.30866 0.303437C0.210856 0.400442 0.133227 0.515852 0.0802508 0.64301C0.0272745 0.770168 0 0.906557 0 1.04431C0 1.18206 0.0272745 1.31845 0.0802508 1.44561C0.133227 1.57277 0.210856 1.68818 0.30866 1.78518L4.73302 6.20955C4.83003 6.30735 4.94544 6.38498 5.0726 6.43796C5.19976 6.49093 5.33615 6.51821 5.4739 6.51821C5.61165 6.51821 5.74804 6.49093 5.8752 6.43796C6.00235 6.38498 6.11776 6.30735 6.21477 6.20955L10.6913 1.78518C10.7891 1.68818 10.8667 1.57277 10.9197 1.44561C10.9727 1.31845 11 1.18206 11 1.04431C11 0.906557 10.9727 0.770168 10.9197 0.64301C10.8667 0.515852 10.7891 0.400442 10.6913 0.303437Z" fill="#AAAAAA"/>
</svg>
