<svg width="17" height="17" viewBox="0 0 17 17" fill="none" xmlns="http://www.w3.org/2000/svg">
<path d="M16.9987 4.45368C16.9994 4.34183 16.978 4.23094 16.9357 4.12739C16.8934 4.02383 16.831 3.92965 16.7523 3.85023L13.1485 0.246496C13.0691 0.167723 12.9749 0.105401 12.8714 0.063104C12.7678 0.0208072 12.6569 -0.000632505 12.5451 1.42061e-05C12.4332 -0.000632505 12.3223 0.0208072 12.2188 0.063104C12.1152 0.105401 12.021 0.167723 11.9416 0.246496L9.5363 2.65182L0.246496 11.9416C0.167723 12.021 0.105401 12.1152 0.063104 12.2188C0.0208072 12.3223 -0.000632505 12.4332 1.42061e-05 12.5451V16.1488C1.42061e-05 16.3742 0.0895608 16.5904 0.248955 16.7498C0.408349 16.9092 0.624534 16.9987 0.849951 16.9987H4.45368C4.57261 17.0052 4.69157 16.9866 4.80285 16.9442C4.91413 16.9017 5.01525 16.8363 5.09963 16.7523L14.3384 7.46246L16.7523 5.09963C16.8298 5.01726 16.8931 4.92245 16.9393 4.81916C16.9474 4.75141 16.9474 4.68292 16.9393 4.61517C16.9432 4.57561 16.9432 4.53574 16.9393 4.49618L16.9987 4.45368ZM4.10521 15.2989H1.69989V12.8936L10.1398 4.45368L12.5451 6.859L4.10521 15.2989ZM13.7435 5.66059L11.3382 3.25527L12.5451 2.05686L14.9419 4.45368L13.7435 5.66059Z" fill="#75839D"/>
</svg>
